<?xml version="1.0" standalone="no"?>
<!DOCTYPE svg PUBLIC "-//W3C//DTD SVG 20010904//EN"
 "http://www.w3.org/TR/2001/REC-SVG-20010904/DTD/svg10.dtd">
<svg version="1.0" xmlns="http://www.w3.org/2000/svg"
 width="1024.000000pt" height="1024.000000pt" viewBox="0 0 1024.000000 1024.000000"
 preserveAspectRatio="xMidYMid meet">
<metadata>
Created by potrace 1.14, written by Peter Selinger 2001-2017
</metadata>
<g transform="translate(0.000000,1024.000000) scale(0.100000,-0.100000)"
fill="#000000" stroke="none">
<path d="M5070 10229 c-144 -18 -174 -23 -264 -45 -91 -22 -91 -22 -91 -24 0
-1 -10 -3 -22 -6 -44 -8 -202 -76 -278 -119 -255 -146 -445 -376 -549 -670 -4
-11 -7 -20 -6 -20 1 0 -6 -17 -15 -37 -8 -21 -12 -38 -9 -38 4 0 1 -6 -5 -14
-6 -8 -11 -18 -10 -22 1 -5 -1 -16 -4 -24 -3 -8 -11 -42 -18 -75 -7 -33 -14
-64 -15 -70 -9 -39 -19 -107 -29 -200 -18 -162 -22 -447 -10 -660 4 -71 8
-159 10 -195 2 -36 7 -112 11 -170 19 -271 8 -445 -43 -720 -8 -43 -54 -213
-69 -255 -9 -22 -24 -64 -34 -94 -27 -73 -151 -321 -162 -321 -4 0 -8 -5 -8
-11 0 -14 -71 -129 -79 -129 -3 0 -12 -12 -18 -27 -11 -23 -65 -93 -126 -163
-8 -8 -27 -33 -43 -55 -16 -22 -34 -44 -40 -50 -22 -21 -84 -104 -84 -112 0
-5 -9 -15 -20 -23 -11 -8 -20 -18 -20 -23 0 -4 -4 -13 -10 -20 -33 -40 -61
-79 -95 -127 -44 -62 -130 -187 -145 -210 -5 -8 -20 -31 -33 -51 -41 -61 -162
-260 -209 -344 -51 -91 -162 -300 -158 -300 1 0 -16 -37 -38 -82 -42 -86 -146
-347 -151 -376 0 -4 -8 -21 -16 -37 -9 -17 -13 -30 -11 -30 3 0 -4 -26 -15
-57 -11 -32 -19 -59 -19 -61 1 -1 -5 -26 -14 -55 -8 -28 -17 -63 -20 -77 -3
-14 -7 -36 -10 -50 -13 -60 -16 -75 -31 -172 -22 -135 -27 -364 -11 -504 l7
-61 -48 -51 c-61 -66 -52 -55 -162 -202 -52 -69 -112 -142 -134 -162 -37 -35
-182 -113 -223 -121 -11 -2 -32 -9 -47 -15 -16 -7 -32 -12 -36 -12 -5 0 -25
-7 -45 -15 -20 -8 -38 -15 -41 -15 -6 -1 -116 -61 -134 -74 -88 -66 -192 -206
-205 -278 -3 -13 -5 -23 -6 -23 -12 0 -17 -217 -6 -285 4 -25 9 -58 11 -75 7
-50 17 -118 21 -145 19 -117 11 -283 -14 -325 -4 -5 -7 -16 -8 -23 -2 -8 -6
-21 -10 -30 -4 -9 -8 -21 -9 -27 -2 -5 -8 -30 -15 -55 -25 -94 -33 -153 -32
-245 0 -44 3 -95 6 -114 17 -98 103 -215 193 -261 26 -14 50 -27 53 -30 3 -3
10 -6 15 -7 6 -1 29 -9 52 -17 23 -9 56 -18 74 -21 18 -3 35 -7 38 -9 6 -4 59
-14 120 -22 19 -2 46 -6 61 -9 37 -6 95 -14 160 -20 30 -3 66 -8 80 -10 14 -2
53 -7 87 -10 34 -3 72 -8 84 -10 13 -3 41 -7 64 -10 118 -17 295 -61 396 -99
36 -13 126 -54 200 -89 116 -56 155 -74 179 -82 3 -1 12 -5 20 -8 44 -19 177
-59 193 -59 9 0 17 -4 17 -9 0 -6 4 -7 10 -4 6 3 16 3 23 -2 14 -9 8 -7 149
-28 370 -56 664 21 864 225 29 29 69 83 90 121 39 68 39 69 84 70 56 1 78 4
165 19 39 6 84 14 100 16 17 3 41 7 55 11 14 3 35 7 48 9 12 1 46 7 75 13 68
14 104 20 147 26 19 3 45 7 57 9 21 4 106 13 213 22 97 8 277 3 365 -10 22 -3
63 -8 90 -11 28 -3 57 -7 65 -9 8 -3 38 -7 65 -11 28 -3 84 -10 125 -15 41 -6
93 -11 115 -13 22 -2 45 -6 51 -9 5 -4 16 -3 23 2 8 4 25 5 40 1 14 -4 69 -7
122 -6 l97 1 32 -81 c18 -44 41 -92 51 -107 11 -14 19 -29 19 -33 0 -13 82
-109 141 -165 63 -60 170 -129 234 -151 22 -7 46 -17 53 -23 7 -5 15 -6 18 -3
3 3 18 1 33 -5 47 -18 64 -20 186 -24 130 -3 242 14 364 55 102 35 272 122
321 163 11 10 23 18 26 18 27 0 208 168 394 365 86 92 135 134 225 196 67 45
85 56 118 71 15 7 27 15 27 19 0 3 19 14 43 25 23 10 44 21 47 24 3 3 106 56
230 117 236 118 283 143 288 156 2 4 8 7 14 7 9 0 69 42 95 67 7 6 16 13 21
15 23 9 103 123 122 174 38 102 20 230 -50 360 -31 56 -98 163 -110 174 -3 3
-25 30 -50 60 -24 30 -55 65 -67 77 -13 12 -23 26 -23 31 0 5 -6 15 -14 22
-15 12 -62 126 -78 189 -5 20 -10 41 -12 46 -2 6 -6 24 -10 40 -66 273 -68
280 -117 380 -35 74 -129 177 -184 205 -75 37 -95 52 -86 64 13 16 65 229 77
316 3 25 8 56 11 70 9 49 11 416 2 480 -29 213 -33 232 -66 364 -26 109 -77
271 -93 298 -6 10 -10 26 -10 36 0 10 -4 22 -8 28 -5 5 -21 41 -37 79 -35 85
-102 234 -115 255 -6 8 -26 45 -45 82 -19 37 -55 101 -80 143 -25 42 -45 81
-45 86 0 5 -3 9 -8 9 -4 0 -22 26 -40 59 -17 32 -39 64 -47 71 -8 7 -15 16
-15 21 0 8 -137 207 -150 219 -3 3 -13 16 -21 30 -32 49 -228 299 -266 338
-13 13 -23 25 -23 27 0 3 -37 51 -83 108 -117 144 -207 264 -207 276 0 6 -4
11 -9 11 -13 0 -145 208 -207 325 -47 88 -120 262 -129 305 -2 8 -11 47 -20
85 -9 39 -18 79 -20 90 -2 11 -7 43 -11 70 -4 28 -9 246 -10 485 -2 450 -9
642 -28 788 -3 20 -8 62 -12 92 -3 30 -8 64 -10 75 -3 11 -7 36 -10 55 -3 19
-7 42 -9 50 -2 8 -7 29 -10 45 -8 49 -12 68 -25 115 -7 25 -14 52 -15 61 -2 9
-11 39 -20 65 -9 27 -18 56 -20 64 -18 80 -164 367 -208 412 -8 7 -16 19 -18
25 -14 42 -258 273 -287 273 -6 0 -12 4 -14 9 -1 4 -38 27 -80 50 -92 50 -214
98 -302 117 -40 9 -51 12 -51 15 0 1 -11 2 -25 4 -14 1 -38 4 -55 8 -16 4 -48
10 -70 13 -63 9 -443 11 -515 3z m571 -1413 c15 -2 58 -19 95 -36 72 -35 184
-137 214 -196 8 -16 21 -37 29 -46 8 -10 11 -18 6 -18 -4 0 -3 -6 3 -13 6 -7
18 -35 27 -62 9 -28 19 -57 22 -65 26 -65 35 -243 17 -340 -18 -97 -22 -114
-40 -156 -53 -128 -99 -200 -118 -185 -9 7 -161 66 -220 85 -18 6 -17 9 11 39
41 43 59 80 73 154 11 54 9 179 -3 223 -2 8 -7 29 -12 45 -10 39 -42 94 -74
126 -156 157 -360 -21 -362 -315 l-1 -84 -51 22 c-29 12 -81 31 -117 41 -36
10 -71 23 -78 30 -12 11 -17 138 -8 217 8 64 61 237 76 248 4 3 17 24 29 47
23 46 130 163 149 163 7 0 12 4 12 8 0 16 100 57 165 69 17 3 31 6 33 8 3 3
78 -3 123 -9z m-1283 -100 c81 -18 182 -110 244 -221 18 -32 48 -110 52 -135
2 -8 6 -22 9 -30 10 -26 17 -82 20 -160 3 -85 -1 -120 -15 -120 -12 0 -51 -17
-180 -78 -4 -2 -7 16 -7 40 1 56 -10 132 -25 173 -53 141 -146 202 -224 146
-25 -18 -61 -73 -68 -106 -33 -144 -22 -263 34 -365 14 -24 34 -52 46 -61 l21
-17 -30 -24 c-16 -12 -46 -35 -66 -50 l-38 -27 -39 47 c-21 26 -53 76 -70 112
-32 66 -66 170 -55 170 3 0 1 6 -4 13 -14 17 -8 352 7 352 1 0 4 13 6 30 11
66 75 178 136 237 34 32 63 56 66 53 3 -2 11 0 18 6 7 6 28 13 46 16 18 3 34
6 36 8 3 3 48 -2 80 -9z m506 -717 c4 5 16 8 29 6 30 -5 108 -16 132 -19 11
-2 27 -5 35 -8 8 -3 44 -16 80 -28 60 -21 208 -94 220 -109 9 -11 123 -67 180
-89 30 -11 107 -39 170 -63 63 -23 140 -54 170 -70 170 -86 226 -220 154 -370
-15 -33 -31 -59 -36 -59 -4 0 -8 -5 -8 -12 0 -26 -178 -178 -208 -178 -6 0
-12 -4 -14 -8 -3 -9 -95 -50 -183 -83 -68 -25 -121 -53 -215 -114 -85 -55
-189 -115 -199 -115 -5 0 -33 -10 -62 -23 -30 -13 -61 -23 -69 -22 -8 1 -19
-1 -25 -4 -41 -22 -239 -17 -323 8 -78 23 -165 78 -252 158 -81 74 -112 100
-180 144 -41 27 -80 53 -87 59 -7 5 -15 10 -18 10 -9 0 -58 43 -111 98 -138
142 -144 296 -17 399 27 21 50 41 51 46 2 4 10 7 18 7 8 0 14 5 14 10 0 6 5
10 11 10 6 0 16 6 23 13 7 6 25 21 40 32 73 53 123 93 157 125 100 95 173 149
256 189 51 25 75 33 133 48 53 13 107 18 117 11 6 -5 14 -5 17 1z m1214 -881
c1 -23 13 -72 32 -133 10 -33 32 -107 49 -165 18 -58 36 -114 41 -125 8 -18
21 -58 26 -77 1 -5 3 -10 4 -13 1 -3 3 -8 5 -12 1 -5 5 -17 9 -28 19 -50 34
-91 36 -100 2 -5 6 -19 10 -30 4 -11 17 -45 28 -75 64 -173 116 -306 124 -315
4 -5 8 -15 8 -22 0 -7 11 -36 24 -65 13 -29 49 -114 81 -188 85 -200 231 -507
256 -536 6 -8 8 -14 4 -14 -4 0 -3 -6 3 -12 19 -24 92 -170 92 -184 0 -8 4
-14 9 -14 5 0 13 -10 17 -22 4 -13 20 -52 36 -88 62 -138 88 -198 118 -280 32
-84 70 -196 74 -215 1 -5 7 -23 14 -40 18 -45 92 -344 92 -372 0 -43 17 -61
52 -59 18 1 60 -4 93 -11 94 -19 89 -21 114 63 12 42 24 88 26 103 2 14 6 37
9 51 16 89 22 264 11 345 -2 17 -6 46 -9 65 -19 140 -79 343 -139 470 -12 25
-22 47 -22 50 -1 6 -55 108 -72 135 -7 11 -15 27 -19 35 -4 8 -20 34 -36 57
-15 23 -28 46 -28 51 0 6 -3 12 -7 14 -5 2 -28 30 -52 63 -25 33 -49 63 -55
67 -6 4 -8 8 -5 8 4 0 -29 37 -73 82 -102 105 -125 148 -80 148 31 0 245 -243
353 -400 24 -36 46 -67 49 -70 3 -3 11 -16 18 -29 8 -13 23 -40 35 -60 50 -88
109 -203 138 -272 27 -63 90 -229 90 -236 0 -2 1 -8 3 -15 3 -7 7 -26 11 -43
3 -16 10 -46 15 -65 16 -65 18 -75 30 -163 14 -102 17 -253 7 -347 -12 -109
-19 -154 -28 -171 -6 -12 -1 -19 19 -29 15 -6 28 -11 30 -11 6 3 227 -113 230
-121 2 -4 8 -8 13 -8 30 0 202 -143 257 -214 22 -28 66 -117 69 -139 9 -60 9
-125 1 -157 -9 -34 -12 -36 -48 -36 l-39 0 5 46 c7 59 7 60 -1 95 -15 69 -69
142 -153 205 -19 14 -39 30 -45 35 -7 6 -23 16 -37 23 -39 19 -88 48 -105 62
-8 7 -15 10 -15 7 0 -4 -35 11 -77 32 -104 52 -219 90 -353 118 -28 6 -142 6
-181 0 -49 -7 -135 -56 -169 -97 -39 -46 -77 -131 -86 -187 -9 -62 -12 -67
-87 -103 -157 -77 -285 -256 -343 -479 -14 -56 -17 -70 -28 -118 -2 -10 -7
-43 -12 -73 -4 -30 -8 -57 -9 -60 -2 -7 -16 -126 -20 -170 -5 -51 -15 -181
-21 -290 -9 -148 -12 -195 -14 -195 -1 0 -7 -27 -14 -75 -7 -45 -88 -352 -103
-390 -4 -8 -5 -18 -5 -22 6 -28 -397 -260 -508 -293 -14 -4 -29 -11 -35 -15
-9 -7 -119 -49 -130 -50 -3 0 -10 -3 -17 -5 -25 -9 -163 -46 -188 -51 -14 -3
-36 -7 -50 -10 -14 -2 -43 -7 -64 -10 -22 -3 -42 -7 -45 -9 -11 -6 -167 -18
-256 -19 -91 -1 -203 7 -285 19 -25 4 -54 9 -65 10 -38 4 -270 71 -290 84 -5
3 -12 6 -15 6 -3 1 -27 11 -54 23 -27 12 -50 22 -52 22 -4 0 -164 91 -211 120
-13 8 -54 59 -91 112 -37 54 -101 142 -144 196 l-76 99 56 6 c128 14 224 70
264 156 28 59 30 180 4 256 -20 59 -102 209 -148 269 -55 73 -232 256 -308
319 -25 20 -51 42 -59 49 -8 6 -46 35 -85 64 -39 30 -76 57 -81 62 -21 17
-194 132 -200 132 -13 0 -115 74 -115 83 0 6 -3 8 -6 4 -3 -3 -17 4 -31 16
-64 55 -129 114 -152 141 -14 16 -33 37 -41 45 -28 30 -98 146 -125 206 -51
112 -55 125 -70 204 -3 19 -8 37 -10 41 -15 25 -22 263 -11 362 9 78 31 203
36 203 1 0 3 11 5 25 7 37 10 50 29 115 10 33 19 65 21 70 1 6 5 18 9 27 4 9
9 22 10 30 2 7 7 22 11 33 5 11 17 43 28 70 10 28 24 61 30 75 6 14 11 27 12
30 10 30 127 273 135 280 3 3 14 25 25 49 11 24 24 49 30 55 5 7 21 32 34 56
45 85 135 235 143 238 4 2 8 9 8 17 0 7 7 18 15 25 40 33 9 -55 -85 -240 -88
-174 -104 -205 -115 -212 -5 -4 -7 -8 -3 -8 4 0 -6 -24 -22 -54 -17 -30 -30
-61 -30 -70 0 -9 -4 -16 -10 -16 -5 0 -10 -7 -10 -15 0 -8 -9 -34 -19 -58 -28
-60 -92 -250 -86 -255 3 -3 1 -10 -4 -16 -7 -9 -26 -92 -45 -201 -8 -40 -19
-189 -19 -240 0 -48 12 -180 18 -198 2 -6 7 -29 10 -51 14 -96 112 -329 162
-383 6 -7 13 -18 16 -25 9 -27 15 0 21 94 4 54 9 112 11 130 2 18 6 53 9 78 3
25 8 55 10 67 2 11 8 43 11 70 9 62 82 362 102 416 8 23 16 52 19 63 6 31 103
286 113 298 5 6 9 13 9 16 1 9 20 55 53 125 18 39 33 72 34 75 1 3 16 37 34
75 18 39 56 120 83 180 28 61 59 130 71 155 12 25 22 47 22 50 1 3 13 31 28
64 15 32 27 60 27 62 0 2 11 27 24 56 13 29 38 89 56 133 18 44 36 89 41 100
20 48 71 181 74 195 2 8 9 29 16 45 6 17 13 35 15 40 1 6 10 33 19 60 41 127
67 211 70 225 1 8 5 22 8 30 10 27 54 221 62 270 2 14 6 39 9 55 7 42 23 178
25 218 1 15 6 14 44 -10 23 -16 44 -31 45 -36 2 -4 8 -5 13 -1 5 3 9 1 9 -5 0
-5 8 -12 19 -16 10 -3 28 -13 39 -23 11 -9 37 -31 59 -49 21 -17 54 -46 73
-63 19 -18 60 -51 90 -74 30 -22 57 -44 58 -48 2 -5 11 -8 21 -8 9 0 22 -5 29
-12 15 -15 144 -58 154 -52 4 3 8 1 8 -3 0 -5 12 -9 28 -8 15 0 46 -2 69 -6
35 -5 119 2 198 16 91 16 223 74 359 159 138 87 210 126 228 126 26 0 178 71
249 117 37 23 96 72 130 107 67 68 75 74 77 54z m928 -3875 c-4 -27 21 -149
45 -216 70 -199 192 -322 354 -355 57 -12 177 -3 225 16 14 5 29 10 33 10 25
0 192 77 244 113 24 16 48 29 54 29 5 0 9 4 9 8 0 4 12 15 28 24 28 17 49 35
114 96 37 35 40 36 123 38 182 5 294 -31 379 -122 66 -69 126 -215 152 -369 3
-16 8 -39 11 -50 7 -22 9 -27 17 -68 25 -133 87 -258 178 -364 121 -138 217
-294 235 -380 15 -73 -16 -196 -54 -210 -7 -3 -13 -10 -13 -15 0 -6 -8 -17
-17 -24 -28 -21 -152 -104 -156 -104 -3 0 -26 -12 -53 -27 -27 -15 -55 -28
-62 -30 -8 -1 -22 -9 -31 -17 -10 -9 -21 -16 -26 -16 -14 0 -360 -173 -363
-182 -2 -4 -8 -8 -14 -8 -17 0 -207 -128 -284 -191 -40 -32 -107 -97 -150
-145 -115 -127 -181 -193 -249 -250 -60 -49 -73 -60 -150 -111 -61 -41 -226
-123 -247 -123 -10 0 -18 -5 -18 -10 0 -6 -3 -9 -7 -8 -5 1 -49 -8 -100 -20
-144 -35 -302 -32 -418 8 -81 28 -115 43 -115 52 0 5 -5 8 -10 8 -26 0 -180
138 -180 161 0 5 -7 12 -15 15 -8 4 -15 10 -15 15 0 5 -13 30 -29 56 -53 88
-72 169 -76 312 -3 142 24 297 100 566 10 33 18 65 20 70 1 6 5 17 8 25 4 8 9
26 11 40 3 14 5 26 5 28 1 1 0 3 -1 5 -1 1 4 11 10 23 16 30 87 302 98 374 2
19 7 46 9 60 5 25 12 113 20 260 5 90 14 200 20 255 8 76 17 148 20 164 1 9 6
36 10 61 10 66 55 233 67 248 6 6 8 12 4 12 -9 0 42 97 73 140 34 47 68 80
116 112 46 32 64 35 61 11z m-4525 -12 c98 -22 185 -76 278 -170 85 -86 111
-118 104 -125 -4 -3 -1 -6 6 -6 7 0 21 -19 32 -42 11 -24 24 -50 29 -58 13
-19 70 -122 128 -230 25 -47 54 -97 64 -112 11 -16 16 -28 13 -28 -3 0 2 -12
13 -27 11 -16 34 -55 51 -88 127 -241 161 -295 312 -492 60 -78 115 -148 122
-155 7 -7 28 -33 47 -58 19 -25 41 -52 48 -60 31 -38 202 -277 214 -300 7 -14
15 -27 18 -30 3 -3 22 -36 40 -75 19 -38 39 -73 43 -76 5 -3 8 -9 7 -13 -1 -4
2 -19 8 -34 46 -125 48 -259 6 -380 -9 -26 -17 -52 -18 -57 -5 -30 -72 -131
-115 -172 -61 -59 -67 -64 -111 -89 -19 -10 -38 -23 -42 -29 -4 -5 -8 -7 -8
-2 0 4 -15 0 -32 -10 -18 -9 -40 -18 -48 -19 -8 -1 -33 -7 -55 -13 -68 -18
-136 -25 -245 -25 -137 0 -278 20 -390 54 -19 6 -46 13 -59 16 -60 12 -204 71
-377 155 -60 30 -113 54 -119 56 -5 1 -43 13 -84 27 -40 15 -87 29 -104 31
-17 3 -34 8 -38 11 -7 4 -78 19 -139 29 -14 3 -34 7 -45 9 -11 2 -42 7 -70 11
-27 3 -63 8 -80 11 -16 2 -46 6 -65 8 -94 9 -296 34 -355 43 -22 3 -49 7 -60
9 -11 1 -20 3 -20 4 0 1 -9 3 -20 5 -11 2 -36 7 -55 10 -38 7 -165 65 -190 87
-29 24 -67 83 -80 121 -21 67 -13 201 20 327 5 19 9 38 10 43 0 4 7 21 15 37
8 16 15 33 15 37 1 5 5 26 11 48 6 22 13 49 16 60 6 27 6 193 -1 230 -5 30 -8
51 -21 130 -36 239 -35 347 5 439 22 51 79 120 129 157 38 27 162 84 205 94
30 7 117 39 143 53 12 7 27 12 33 12 18 0 145 86 182 124 40 40 88 96 108 126
8 13 23 32 33 42 9 10 17 23 17 28 0 6 4 10 8 10 4 0 16 14 27 32 20 35 49 69
110 133 113 117 224 151 376 116z"/>
<path d="M5023 7838 c-49 -13 -40 -33 29 -68 60 -29 108 -34 123 -10 13 20
-43 64 -95 74 -3 1 -9 4 -15 7 -5 3 -25 2 -42 -3z"/>
<path d="M4640 7826 c0 -5 -3 -7 -6 -3 -9 9 -60 -19 -67 -36 -15 -39 50 -59
90 -27 14 11 29 20 34 20 4 0 19 4 34 10 21 8 24 13 16 29 -8 15 -21 19 -56
17 -25 0 -45 -5 -45 -10z"/>
<path d="M5780 7464 c-8 -3 -24 -18 -35 -35 -11 -17 -49 -53 -85 -80 -36 -26
-75 -57 -87 -69 -12 -11 -24 -20 -27 -20 -3 0 -33 -20 -68 -44 -126 -88 -433
-226 -502 -226 -13 0 -26 -3 -30 -7 -3 -4 -16 -8 -29 -9 -44 -6 -193 -5 -217
1 -14 3 -36 8 -50 11 -67 13 -176 62 -257 116 -95 63 -227 181 -255 228 -44
73 -89 86 -83 23 3 -29 32 -75 66 -103 4 -3 33 -29 65 -57 81 -72 170 -138
224 -165 25 -13 47 -25 50 -28 6 -8 113 -51 131 -54 8 -1 19 -4 24 -8 16 -10
89 -19 180 -23 69 -3 211 15 234 29 4 3 18 7 32 10 28 6 92 29 99 36 3 3 12 6
20 8 33 8 356 174 370 191 3 3 25 20 50 36 25 17 50 35 56 40 6 6 29 24 50 40
67 52 125 118 122 140 -3 20 -20 27 -48 19z"/>
</g>
</svg>
